<?xml version="1.0" standalone="no"?>
<!DOCTYPE svg PUBLIC "-//W3C//DTD SVG 20010904//EN"
 "http://www.w3.org/TR/2001/REC-SVG-20010904/DTD/svg10.dtd">
<svg version="1.0" xmlns="http://www.w3.org/2000/svg"
 width="575.000000pt" height="565.000000pt" viewBox="0 0 575.000000 565.000000"
 preserveAspectRatio="xMidYMid meet">

<g transform="translate(0.000000,565.000000) scale(0.100000,-0.100000)"
fill="#000000" stroke="none">
<path d="M2656 5234 c-66 -45 -87 -141 -43 -204 37 -55 71 -74 132 -74 61 0
95 19 133 74 43 64 21 162 -47 207 -49 33 -124 32 -175 -3z m134 -41 c33 -19
53 -53 48 -79 -4 -25 -32 -24 -36 1 -6 28 -21 45 -43 45 -22 0 -33 16 -25 35
7 19 21 19 56 -2z"/>
<path d="M3299 5113 c-13 -16 -12 -17 4 -4 9 7 17 15 17 17 0 8 -8 3 -21 -13z"/>
<path d="M3266 5091 c-4 -5 -2 -12 3 -15 5 -4 12 -2 15 3 4 5 2 12 -3 15 -5 4
-12 2 -15 -3z"/>
<path d="M3246 5057 c3 -8 -2 -20 -11 -27 -8 -7 -15 -18 -15 -24 1 -15 39 36
40 52 0 6 -4 12 -10 12 -5 0 -7 -6 -4 -13z"/>
<path d="M3145 4979 c-4 -5 1 -19 10 -29 17 -18 17 -21 1 -47 l-17 -28 20 24
c25 28 26 35 7 51 -8 6 -12 18 -9 26 6 16 -3 19 -12 3z"/>
<path d="M3088 4918 c-16 -18 -28 -36 -28 -40 0 -12 55 46 56 60 1 15 4 17
-28 -20z"/>
<path d="M3135 4919 c-4 -6 -5 -12 -2 -15 2 -3 7 2 10 11 7 17 1 20 -8 4z"/>
<path d="M2393 4904 c-129 -46 -171 -207 -81 -310 43 -49 83 -67 148 -67 65 0
105 18 148 67 53 61 63 145 27 217 -31 58 -117 110 -180 108 -11 0 -39 -7 -62
-15z m144 -69 c32 -22 52 -55 55 -95 2 -25 -1 -35 -13 -38 -12 -2 -18 7 -23
31 -8 41 -41 75 -84 83 -30 6 -41 22 -25 38 11 10 62 -1 90 -19z"/>
<path d="M3124 4860 c0 -13 4 -16 10 -10 7 7 7 13 0 20 -6 6 -10 3 -10 -10z"/>
<path d="M3322 4763 c-58 -112 -93 -202 -124 -317 -33 -120 -32 -331 0 -436
63 -201 167 -365 346 -549 104 -106 141 -152 169 -206 39 -78 65 -107 117
-127 34 -13 80 -5 80 14 0 3 8 14 18 24 23 24 25 153 1 180 -8 11 -20 31 -27
46 -6 16 -45 79 -85 140 -93 141 -127 209 -129 253 -3 73 68 103 148 64 56
-29 139 -119 155 -168 6 -20 22 -59 35 -87 13 -28 27 -66 30 -85 4 -19 11 -40
17 -47 6 -7 11 -44 11 -82 1 -37 4 -63 8 -56 4 6 8 -34 8 -89 1 -194 61 -419
134 -504 65 -76 117 -119 159 -134 115 -39 121 4 42 283 -46 161 -60 251 -80
490 -25 302 -63 450 -156 606 -90 150 -190 254 -367 380 -105 74 -227 190
-260 246 -20 34 -36 37 -26 6 34 -111 88 -208 159 -287 21 -23 33 -41 28 -41
-24 0 -139 89 -205 159 -116 121 -168 247 -154 368 3 29 5 53 3 53 -2 0 -27
-44 -55 -97z"/>
<path d="M2995 4810 c-10 -11 -16 -22 -13 -25 3 -3 13 4 23 15 10 11 16 22 13
25 -3 3 -13 -4 -23 -15z"/>
<path d="M3100 4815 c-7 -9 -11 -17 -9 -20 3 -2 10 5 17 15 14 24 10 26 -8 5z"/>
<path d="M3015 4780 c-3 -5 -1 -10 4 -10 6 0 11 5 11 10 0 6 -2 10 -4 10 -3 0
-8 -4 -11 -10z"/>
<path d="M3066 4757 c3 -10 9 -15 12 -12 3 3 0 11 -7 18 -10 9 -11 8 -5 -6z"/>
<path d="M2893 4643 c-3 -10 -8 -21 -10 -25 -2 -5 0 -8 5 -8 5 0 12 11 14 25
6 29 0 33 -9 8z"/>
<path d="M2957 4630 c-3 -11 -1 -20 4 -20 5 0 9 9 9 20 0 11 -2 20 -4 20 -2 0
-6 -9 -9 -20z"/>
<path d="M2848 4559 c-9 -21 -13 -39 -9 -39 8 0 35 69 29 75 -1 2 -11 -14 -20
-36z"/>
<path d="M2974 4552 c-8 -21 -8 -29 0 -29 6 0 12 13 13 29 3 35 0 35 -13 0z"/>
<path d="M2821 4494 c0 -11 3 -14 6 -6 3 7 2 16 -1 19 -3 4 -6 -2 -5 -13z"/>
<path d="M2966 4483 c-6 -14 -5 -15 5 -6 7 7 10 15 7 18 -3 3 -9 -2 -12 -12z"/>
<path d="M2272 4399 c-65 -19 -132 -112 -132 -185 0 -65 53 -147 114 -175 186
-84 360 120 245 288 -49 70 -136 98 -227 72z m160 -86 c34 -32 57 -98 41 -114
-16 -16 -30 -4 -38 30 -8 38 -40 70 -76 78 -33 6 -44 17 -33 34 11 19 75 2
106 -28z"/>
<path d="M2922 4350 c0 -14 2 -19 5 -12 2 6 2 18 0 25 -3 6 -5 1 -5 -13z"/>
<path d="M2902 4320 c0 -19 2 -27 5 -17 2 9 2 25 0 35 -3 9 -5 1 -5 -18z"/>
<path d="M2771 4304 c0 -11 3 -14 6 -6 3 7 2 16 -1 19 -3 4 -6 -2 -5 -13z"/>
<path d="M2931 4294 c0 -11 3 -14 6 -6 3 7 2 16 -1 19 -3 4 -6 -2 -5 -13z"/>
<path d="M2912 4200 c0 -19 2 -27 5 -17 2 9 2 25 0 35 -3 9 -5 1 -5 -18z"/>
<path d="M2932 4150 c0 -14 2 -19 5 -12 2 6 2 18 0 25 -3 6 -5 1 -5 -13z"/>
<path d="M2892 4105 c0 -16 2 -22 5 -12 2 9 2 23 0 30 -3 6 -5 -1 -5 -18z"/>
<path d="M2911 4114 c0 -11 3 -14 6 -6 3 7 2 16 -1 19 -3 4 -6 -2 -5 -13z"/>
<path d="M2775 4075 c0 -24 3 -38 7 -32 4 7 8 21 8 32 0 11 -4 25 -8 32 -4 6
-7 -8 -7 -32z"/>
<path d="M2941 4094 c0 -11 3 -14 6 -6 3 7 2 16 -1 19 -3 4 -6 -2 -5 -13z"/>
<path d="M2972 3905 c1 -20 4 -31 8 -25 7 11 2 60 -6 60 -2 0 -3 -16 -2 -35z"/>
<path d="M2366 3884 c-166 -61 -219 -269 -102 -402 43 -49 117 -82 186 -82
186 0 307 198 222 361 -60 115 -188 166 -306 123z m158 -58 c65 -27 116 -103
116 -174 0 -35 -33 -24 -40 14 -11 51 -42 93 -85 114 -23 11 -49 20 -58 20
-19 0 -31 16 -22 30 9 14 50 12 89 -4z"/>
<path d="M3001 3875 c0 -11 4 -27 9 -35 9 -13 10 -13 9 0 0 8 -4 24 -9 35 l-9
20 0 -20z"/>
<path d="M2840 3865 c0 -5 5 -17 10 -25 5 -8 10 -10 10 -5 0 6 -5 17 -10 25
-5 8 -10 11 -10 5z"/>
<path d="M2820 3850 c0 -17 17 -47 23 -40 2 3 -2 16 -10 30 -7 14 -13 18 -13
10z"/>
<path d="M2840 3795 c1 -6 7 -21 16 -35 l15 -25 -7 25 c-7 26 -24 52 -24 35z"/>
<path d="M1203 3709 c-45 -16 -43 -31 22 -279 56 -209 62 -245 80 -468 8 -100
19 -210 25 -245 53 -332 221 -587 520 -787 78 -52 178 -147 227 -213 20 -26
38 -46 40 -43 8 7 -27 106 -55 156 -32 59 -58 97 -100 143 -18 22 -31 41 -28
44 2 3 35 -17 73 -44 195 -139 292 -300 281 -466 -2 -36 -1 -64 2 -62 4 2 34
59 67 127 106 213 139 354 130 548 -6 141 -27 213 -108 370 -77 150 -137 229
-281 372 -87 88 -125 133 -148 180 -37 74 -63 104 -110 126 -21 11 -37 27 -41
42 -6 25 -6 24 -10 -5 -2 -16 -9 -29 -16 -28 -25 5 -54 -64 -58 -139 -3 -51
-1 -68 6 -58 8 11 9 8 5 -12 -5 -20 -3 -26 7 -22 8 3 17 -8 25 -29 7 -18 50
-90 96 -160 76 -114 126 -214 126 -252 0 -39 -44 -75 -92 -75 -79 0 -218 143
-218 224 0 30 -3 37 -10 26 -8 -13 -10 -12 -10 4 0 11 -7 27 -16 37 -8 9 -16
28 -18 41 -1 13 -5 28 -9 34 -13 22 -37 162 -37 224 -2 133 -76 500 -102 500
-4 0 -8 4 -8 10 0 15 -123 141 -154 157 -46 24 -79 31 -103 22z"/>
<path d="M3086 3697 c3 -10 9 -15 12 -12 3 3 0 11 -7 18 -10 9 -11 8 -5 -6z"/>
<path d="M2902 3675 c6 -14 13 -24 14 -22 6 6 -9 47 -17 47 -5 0 -3 -11 3 -25z"/>
<path d="M3122 3645 c6 -14 15 -25 20 -25 5 0 1 11 -8 25 -9 14 -18 25 -20 25
-2 0 2 -11 8 -25z"/>
<path d="M1463 3640 c-1 -11 2 -18 8 -15 11 7 12 35 1 35 -4 0 -8 -9 -9 -20z"/>
<path d="M1557 3644 c3 -8 14 -19 25 -25 17 -9 18 -8 6 10 -15 25 -39 36 -31
15z"/>
<path d="M3157 3591 c3 -12 9 -21 14 -21 14 0 11 16 -5 29 -12 10 -13 8 -9 -8z"/>
<path d="M1480 3589 c0 -5 5 -7 10 -4 6 3 10 8 10 11 0 2 -4 4 -10 4 -5 0 -10
-5 -10 -11z"/>
<path d="M2990 3570 c-9 -6 -10 -10 -3 -10 6 0 15 5 18 10 8 12 4 12 -15 0z"/>
<path d="M1611 3554 c0 -11 3 -14 6 -6 3 7 2 16 -1 19 -3 4 -6 -2 -5 -13z"/>
<path d="M3206 3535 c4 -8 11 -15 16 -15 6 0 5 6 -2 15 -7 8 -14 15 -16 15 -2
0 -1 -7 2 -15z"/>
<path d="M1630 3535 c0 -5 5 -17 10 -25 5 -8 10 -10 10 -5 0 6 -5 17 -10 25
-5 8 -10 11 -10 5z"/>
<path d="M1705 3520 c-3 -5 -1 -10 4 -10 6 0 11 5 11 10 0 6 -2 10 -4 10 -3 0
-8 -4 -11 -10z"/>
<path d="M1765 3510 c6 -10 4 -12 -11 -6 -15 6 -17 5 -6 -5 9 -9 15 -10 23 -2
8 8 7 13 -2 18 -8 6 -10 4 -4 -5z"/>
<path d="M1600 3501 c0 -6 4 -13 10 -16 6 -3 7 1 4 9 -7 18 -14 21 -14 7z"/>
<path d="M2036 3493 c-6 -14 -5 -15 5 -6 7 7 10 15 7 18 -3 3 -9 -2 -12 -12z"/>
<path d="M3238 3494 c6 -12 27 -34 46 -49 40 -32 52 -55 34 -66 -7 -4 -9 -11
-5 -16 5 -4 12 -2 16 5 5 8 15 10 27 5 13 -5 9 3 -13 28 -66 69 -116 114 -105
93z"/>
<path d="M3981 3484 c0 -11 3 -14 6 -6 3 7 2 16 -1 19 -3 4 -6 -2 -5 -13z"/>
<path d="M1782 3468 c-5 -21 -6 -21 -13 -2 -5 12 -8 14 -8 4 0 -8 3 -21 8 -28
6 -10 11 -6 19 17 6 17 9 31 6 31 -3 0 -8 -10 -12 -22z"/>
<path d="M3080 3455 c13 -14 25 -25 27 -25 9 0 -33 49 -41 50 -5 0 1 -11 14
-25z"/>
<path d="M1602 3450 c0 -14 2 -19 5 -12 2 6 2 18 0 25 -3 6 -5 1 -5 -13z"/>
<path d="M1657 3452 c1 -8 3 -21 4 -30 0 -14 2 -13 9 3 12 27 12 37 1 31 -5
-4 -11 -3 -14 1 -2 5 -2 2 0 -5z"/>
<path d="M2050 3465 c0 -5 5 -17 10 -25 5 -8 10 -10 10 -5 0 6 -5 17 -10 25
-5 8 -10 11 -10 5z"/>
<path d="M1621 3444 c0 -11 3 -14 6 -6 3 7 2 16 -1 19 -3 4 -6 -2 -5 -13z"/>
<path d="M1800 3450 c0 -5 5 -10 10 -10 6 0 10 5 10 10 0 6 -4 10 -10 10 -5 0
-10 -4 -10 -10z"/>
<path d="M3991 3444 c0 -11 3 -14 6 -6 3 7 2 16 -1 19 -3 4 -6 -2 -5 -13z"/>
<path d="M3962 3423 c-7 -16 -8 -31 -3 -36 5 -5 9 -2 8 9 -1 11 3 18 9 17 7
-1 10 6 7 17 -7 25 -6 25 -21 -7z"/>
<path d="M2032 3415 c0 -16 2 -22 5 -12 2 9 2 23 0 30 -3 6 -5 -1 -5 -18z"/>
<path d="M3146 3401 c-5 -8 40 -9 47 -1 3 3 -6 6 -19 6 -13 1 -26 -1 -28 -5z"/>
<path d="M2741 3383 c-91 -33 -161 -137 -161 -239 0 -138 135 -256 275 -241
210 22 301 266 156 420 -61 67 -181 93 -270 60z m177 -62 c20 -10 45 -27 54
-38 43 -48 66 -158 31 -151 -11 2 -20 16 -23 38 -12 70 -56 116 -122 126 -40
7 -53 17 -43 34 10 16 63 12 103 -9z"/>
<path d="M2097 3373 c-4 -3 -7 -11 -7 -17 0 -6 5 -5 12 2 6 6 9 14 7 17 -3 3
-9 2 -12 -2z"/>
<path d="M3166 3365 c4 -8 11 -15 16 -15 6 0 5 6 -2 15 -7 8 -14 15 -16 15 -2
0 -1 -7 2 -15z"/>
<path d="M3941 3364 c0 -11 3 -14 6 -6 3 7 2 16 -1 19 -3 4 -6 -2 -5 -13z"/>
<path d="M3286 3345 c4 -8 11 -15 16 -15 6 0 5 6 -2 15 -7 8 -14 15 -16 15 -2
0 -1 -7 2 -15z"/>
<path d="M3345 3350 c-3 -5 -1 -10 4 -10 6 0 11 5 11 10 0 6 -2 10 -4 10 -3 0
-8 -4 -11 -10z"/>
<path d="M2131 3325 c-1 -11 9 -26 22 -34 21 -13 21 -13 6 5 -9 10 -19 26 -22
34 -4 11 -6 9 -6 -5z"/>
<path d="M3390 3335 c0 -3 12 -18 28 -33 60 -62 67 -73 52 -82 -8 -5 -11 -12
-7 -17 5 -4 12 -1 16 6 7 11 10 11 17 0 4 -7 3 -14 -4 -17 -7 -2 -12 -9 -12
-15 0 -6 7 -4 17 5 15 16 15 20 -12 57 -42 62 -95 115 -95 96z"/>
<path d="M2051 3325 c1 -19 18 -51 18 -35 0 8 -4 22 -9 30 -5 8 -9 11 -9 5z"/>
<path d="M3226 3322 c-3 -5 9 -22 26 -38 18 -16 27 -22 20 -13 -7 9 -10 25 -6
35 4 14 3 16 -4 5 -5 -7 -15 -10 -22 -6 -9 6 -9 9 1 16 10 6 10 9 2 9 -6 0
-14 -4 -17 -8z"/>
<path d="M2125 3270 c3 -5 11 -10 16 -10 6 0 7 5 4 10 -3 6 -11 10 -16 10 -6
0 -7 -4 -4 -10z"/>
<path d="M2196 3235 c14 -19 30 -35 35 -35 5 0 -5 16 -22 35 -18 19 -34 35
-36 35 -2 0 8 -16 23 -35z"/>
<path d="M3335 3230 c3 -5 8 -10 11 -10 2 0 4 5 4 10 0 6 -5 10 -11 10 -5 0
-7 -4 -4 -10z"/>
<path d="M1765 3210 c3 -5 8 -10 11 -10 2 0 4 5 4 10 0 6 -5 10 -11 10 -5 0
-7 -4 -4 -10z"/>
<path d="M2167 3206 c-4 -10 -1 -13 9 -9 15 6 19 23 5 23 -5 0 -11 -7 -14 -14z"/>
<path d="M3320 3216 c0 -2 8 -10 18 -17 15 -13 16 -12 3 4 -13 16 -21 21 -21
13z"/>
<path d="M2120 3201 c0 -5 5 -13 10 -16 6 -3 10 -2 10 4 0 5 -4 13 -10 16 -5
3 -10 2 -10 -4z"/>
<path d="M2100 3180 c6 -11 13 -20 16 -20 2 0 0 9 -6 20 -6 11 -13 20 -16 20
-2 0 0 -9 6 -20z"/>
<path d="M2200 3190 c0 -5 5 -10 11 -10 5 0 7 5 4 10 -3 6 -8 10 -11 10 -2 0
-4 -4 -4 -10z"/>
<path d="M3440 3191 c0 -6 4 -13 10 -16 6 -3 7 1 4 9 -7 18 -14 21 -14 7z"/>
<path d="M3524 3161 c0 -11 3 -18 7 -15 4 2 19 -19 34 -48 14 -29 23 -42 19
-28 -5 22 -51 110 -57 110 -2 0 -3 -9 -3 -19z"/>
<path d="M2277 3135 c10 -13 21 -25 26 -25 11 0 -16 39 -31 45 -8 3 -6 -4 5
-20z"/>
<path d="M2130 3130 c6 -11 13 -20 16 -20 2 0 0 9 -6 20 -6 11 -13 20 -16 20
-2 0 0 -9 6 -20z"/>
<path d="M3420 3120 c-9 -6 -10 -10 -3 -10 6 0 15 5 18 10 8 12 4 12 -15 0z"/>
<path d="M3530 3111 c0 -6 4 -13 10 -16 6 -3 7 1 4 9 -7 18 -14 21 -14 7z"/>
<path d="M2226 3077 c3 -10 9 -15 12 -12 3 3 0 11 -7 18 -10 9 -11 8 -5 -6z"/>
<path d="M2188 3068 c-9 -21 16 -45 28 -27 4 7 3 9 -4 5 -6 -4 -12 3 -14 16
-3 19 -4 20 -10 6z"/>
<path d="M3465 3069 c-4 -6 -5 -12 -2 -15 2 -3 7 2 10 11 7 17 1 20 -8 4z"/>
<path d="M3540 3071 c0 -6 4 -13 10 -16 6 -3 7 1 4 9 -7 18 -14 21 -14 7z"/>
<path d="M2350 3066 c0 -2 7 -9 15 -16 13 -11 14 -10 9 4 -5 14 -24 23 -24 12z"/>
<path d="M3503 3026 c-9 -10 -4 -21 19 -47 17 -19 28 -26 24 -16 -3 10 -6 23
-6 28 0 5 -6 8 -12 7 -8 -2 -12 6 -11 20 3 25 2 26 -14 8z"/>
<path d="M2340 3020 c-9 -6 -10 -10 -3 -10 6 0 15 5 18 10 8 12 4 12 -15 0z"/>
<path d="M2380 3020 c-9 -6 -10 -10 -3 -10 6 0 15 5 18 10 8 12 4 12 -15 0z"/>
<path d="M2210 3016 c0 -2 8 -10 18 -17 15 -13 16 -12 3 4 -13 16 -21 21 -21
13z"/>
<path d="M3594 3009 c-4 -7 -3 -9 4 -5 5 3 13 0 15 -6 4 -9 6 -10 6 -1 1 17
-16 25 -25 12z"/>
<path d="M2420 2992 c0 -4 10 -13 23 -21 22 -14 22 -14 3 8 -20 22 -26 25 -26
13z"/>
<path d="M3560 2993 c0 -4 5 -15 10 -23 8 -13 10 -13 10 2 0 9 -4 20 -10 23
-5 3 -10 3 -10 -2z"/>
<path d="M1681 2974 c0 -11 3 -14 6 -6 3 7 2 16 -1 19 -3 4 -6 -2 -5 -13z"/>
<path d="M1697 2939 c-3 -12 -2 -31 2 -42 6 -17 8 -12 8 21 0 47 -2 52 -10 21z"/>
<path d="M2483 2935 c0 -8 4 -12 9 -9 5 3 6 10 3 15 -9 13 -12 11 -12 -6z"/>
<path d="M2516 2896 c3 -9 11 -16 16 -16 13 0 5 23 -10 28 -7 2 -10 -2 -6 -12z"/>
<path d="M2370 2890 c0 -5 5 -10 10 -10 6 0 10 5 10 10 0 6 -4 10 -10 10 -5 0
-10 -4 -10 -10z"/>
<path d="M3129 2886 c-170 -60 -220 -282 -93 -410 51 -50 102 -70 179 -70 52
0 80 5 111 21 47 25 101 82 120 129 20 48 17 151 -5 199 -21 47 -86 108 -137
130 -44 18 -126 19 -175 1z m164 -60 c48 -20 88 -69 102 -123 13 -52 10 -73
-10 -73 -14 0 -19 11 -30 66 -10 50 -77 104 -129 104 -19 0 -26 5 -26 20 0 16
7 20 30 20 17 0 45 -6 63 -14z"/>
<path d="M3612 2870 c0 -19 2 -27 5 -17 2 9 2 25 0 35 -3 9 -5 1 -5 -18z"/>
<path d="M2340 2880 c0 -5 5 -10 11 -10 5 0 7 5 4 10 -3 6 -8 10 -11 10 -2 0
-4 -4 -4 -10z"/>
<path d="M3632 2860 c0 -14 2 -19 5 -12 2 6 2 18 0 25 -3 6 -5 1 -5 -13z"/>
<path d="M2556 2862 c-3 -5 1 -9 9 -9 8 0 12 4 9 9 -3 4 -7 8 -9 8 -2 0 -6 -4
-9 -8z"/>
<path d="M2365 2850 c3 -5 11 -10 16 -10 6 0 7 5 4 10 -3 6 -11 10 -16 10 -6
0 -7 -4 -4 -10z"/>
<path d="M1680 2830 c0 -11 2 -20 4 -20 2 0 6 9 9 20 3 11 1 20 -4 20 -5 0 -9
-9 -9 -20z"/>
<path d="M3947 2843 c-4 -3 -7 -11 -7 -17 0 -6 5 -5 12 2 6 6 9 14 7 17 -3 3
-9 2 -12 -2z"/>
<path d="M4062 2825 c0 -16 2 -22 5 -12 2 9 2 23 0 30 -3 6 -5 -1 -5 -18z"/>
<path d="M2597 2815 c10 -13 21 -25 26 -25 11 0 -16 39 -31 45 -8 3 -6 -4 5
-20z"/>
<path d="M498 2813 c-45 -50 -43 -118 4 -158 52 -44 112 -24 147 50 12 26 26
43 32 39 6 -3 8 -13 4 -22 -7 -18 13 -82 25 -82 18 0 50 60 50 93 0 82 -91
120 -142 58 -14 -15 -30 -43 -38 -60 -7 -17 -18 -30 -24 -28 -16 5 -20 46 -5
63 10 12 8 20 -12 40 -24 24 -26 24 -41 7z"/>
<path d="M3872 2810 c7 -11 17 -20 22 -20 5 0 1 9 -9 20 -10 11 -20 20 -22 20
-2 0 2 -9 9 -20z"/>
<path d="M3966 2815 c-9 -26 -7 -32 5 -12 6 10 9 21 6 23 -2 3 -7 -2 -11 -11z"/>
<path d="M5153 2814 c-8 -22 10 -49 32 -49 10 0 22 7 28 16 15 24 1 49 -28 49
-15 0 -28 -7 -32 -16z"/>
<path d="M2565 2800 c3 -5 8 -10 11 -10 2 0 4 5 4 10 0 6 -5 10 -11 10 -5 0
-7 -4 -4 -10z"/>
<path d="M3620 2801 c0 -6 5 -13 10 -16 6 -3 10 1 10 9 0 9 -4 16 -10 16 -5 0
-10 -4 -10 -9z"/>
<path d="M4021 2784 c0 -11 3 -14 6 -6 3 7 2 16 -1 19 -3 4 -6 -2 -5 -13z"/>
<path d="M2440 2776 c0 -2 8 -10 18 -17 15 -13 16 -12 3 4 -13 16 -21 21 -21
13z"/>
<path d="M2674 2731 c11 -12 15 -25 11 -33 -6 -10 -5 -10 4 -2 10 9 10 16 -1
33 -7 11 -17 21 -22 21 -5 0 -1 -9 8 -19z"/>
<path d="M4047 2744 c-11 -11 -8 -26 3 -19 6 3 10 1 10 -6 0 -7 3 -10 6 -6 3
3 2 13 -3 22 -5 8 -12 12 -16 9z"/>
<path d="M2645 2715 c0 -14 5 -21 13 -18 6 3 12 9 12 13 0 4 -6 12 -12 18 -10
8 -13 5 -13 -13z"/>
<path d="M4200 2691 c0 -34 -22 -55 -50 -48 -11 3 -20 1 -20 -4 0 -15 47 -10
64 7 14 14 23 74 11 74 -3 0 -5 -13 -5 -29z"/>
<path d="M4970 2682 c-42 -21 -57 -50 -62 -122 l-3 -55 130 -17 c72 -10 135
-16 141 -14 17 7 26 124 11 155 -16 34 -90 71 -142 71 -22 0 -56 -8 -75 -18z
m125 -66 c27 -12 35 -21 35 -41 l0 -27 -67 7 c-79 9 -83 10 -83 35 0 38 55 51
115 26z"/>
<path d="M2516 2677 c3 -10 9 -15 12 -12 3 3 0 11 -7 18 -10 9 -11 8 -5 -6z"/>
<path d="M4090 2666 c0 -2 7 -9 15 -16 13 -11 14 -10 9 4 -5 14 -24 23 -24 12z"/>
<path d="M2745 2636 c10 -14 19 -26 22 -26 7 0 -17 39 -28 46 -6 3 -3 -5 6
-20z"/>
<path d="M2770 2600 c0 -3 11 -27 25 -54 14 -27 25 -43 25 -35 0 13 -49 101
-50 89z"/>
<path d="M2580 2585 c0 -5 5 -17 10 -25 5 -8 10 -10 10 -5 0 6 -5 17 -10 25
-5 8 -10 11 -10 5z"/>
<path d="M625 2541 c-125 -26 -130 -28 -127 -52 5 -48 7 -48 73 -33 34 8 67
13 73 11 5 -2 -21 -25 -58 -51 -64 -46 -67 -50 -60 -80 3 -17 9 -34 13 -38 3
-3 66 6 139 20 132 26 132 26 132 54 0 38 -18 43 -91 28 -33 -7 -62 -10 -65
-7 -3 3 24 25 60 49 45 29 66 49 66 63 0 28 -11 65 -19 64 -3 -1 -64 -13 -136
-28z"/>
<path d="M2830 2476 c0 -8 4 -17 9 -20 5 -4 7 3 4 14 -6 23 -13 26 -13 6z"/>
<path d="M2675 2440 c3 -5 8 -10 11 -10 2 0 4 5 4 10 0 6 -5 10 -11 10 -5 0
-7 -4 -4 -10z"/>
<path d="M4886 2429 c-16 -48 -46 -172 -43 -176 3 -2 17 -5 33 -6 23 -2 30 3
32 21 4 28 16 28 127 -3 49 -13 91 -23 92 -21 2 2 8 17 12 34 l9 30 -76 21
c-43 11 -90 23 -105 27 -26 6 -28 9 -22 40 4 26 2 34 -9 34 -8 0 -21 3 -30 6
-9 3 -18 0 -20 -7z"/>
<path d="M2661 2423 c-2 -23 19 -64 29 -58 7 4 9 -3 5 -22 -5 -27 -5 -27 5 -4
7 17 7 28 0 35 -6 6 -10 6 -11 1 0 -6 -7 6 -14 25 -7 19 -14 30 -14 23z"/>
<path d="M2861 2384 c0 -11 3 -14 6 -6 3 7 2 16 -1 19 -3 4 -6 -2 -5 -13z"/>
<path d="M3245 2266 c-70 -31 -116 -100 -116 -174 -1 -58 14 -98 49 -136 98
-104 264 -79 323 49 22 48 24 110 4 157 -15 38 -73 94 -112 109 -35 13 -113
10 -148 -5z m156 -69 c36 -24 67 -91 56 -120 -9 -24 -37 -9 -37 20 0 32 -51
83 -83 83 -24 0 -42 21 -30 34 14 13 62 5 94 -17z"/>
<path d="M708 2221 c-59 -21 -114 -41 -122 -44 -13 -5 -12 -15 5 -66 29 -85
56 -104 136 -99 51 3 69 9 100 34 54 44 61 71 37 146 -11 36 -26 64 -35 65 -8
1 -62 -15 -121 -36z m102 -74 c0 -30 -25 -52 -70 -64 -37 -10 -60 -7 -72 11
-16 24 -6 35 50 54 77 28 92 27 92 -1z"/>
<path d="M2893 2125 c0 -22 2 -30 4 -17 2 12 2 30 0 40 -3 9 -5 -1 -4 -23z"/>
<path d="M5022 2111 l-20 -49 -91 34 c-50 19 -97 34 -105 34 -16 0 -31 -49
-19 -60 4 -4 33 -17 63 -28 30 -11 85 -31 122 -45 l67 -26 31 81 c31 83 31 91
-6 102 -18 6 -24 -1 -42 -43z"/>
<path d="M2882 2015 c0 -16 2 -22 5 -12 2 9 2 23 0 30 -3 6 -5 -1 -5 -18z"/>
<path d="M818 1936 c-64 -34 -120 -64 -123 -68 -9 -8 16 -58 29 -58 6 1 22 7
36 15 54 31 65 12 25 -41 -28 -37 -30 -49 -11 -83 l13 -24 32 47 c30 43 35 46
65 40 61 -11 116 33 116 91 0 21 -55 147 -63 144 -1 0 -55 -28 -119 -63z m112
-55 c14 -27 2 -51 -25 -51 -28 0 -43 34 -25 55 17 21 37 19 50 -4z"/>
<path d="M2881 1954 c0 -11 3 -14 6 -6 3 7 2 16 -1 19 -3 4 -6 -2 -5 -13z"/>
<path d="M2815 1880 c3 -5 8 -10 11 -10 2 0 4 5 4 10 0 6 -5 10 -11 10 -5 0
-7 -4 -4 -10z"/>
<path d="M2851 1844 c0 -11 3 -14 6 -6 3 7 2 16 -1 19 -3 4 -6 -2 -5 -13z"/>
<path d="M2704 1806 c-3 -8 -4 -23 -2 -33 3 -11 6 -6 9 15 6 34 2 42 -7 18z"/>
<path d="M2830 1790 c0 -11 2 -20 4 -20 2 0 6 9 9 20 3 11 1 20 -4 20 -5 0 -9
-9 -9 -20z"/>
<path d="M3165 1770 c-149 -34 -208 -203 -109 -318 91 -107 262 -85 323 41 70
145 -59 312 -214 277z m113 -76 c31 -21 62 -73 62 -107 0 -42 -29 -31 -45 16
-15 43 -40 66 -71 67 -30 0 -47 23 -31 39 14 14 50 7 85 -15z"/>
<path d="M4561 1684 l-53 -76 21 -21 22 -22 19 23 c10 12 21 22 24 22 3 0 45
-26 92 -57 l86 -57 19 23 c10 13 19 26 19 30 0 3 -36 31 -81 61 -44 30 -83 58
-85 61 -2 4 1 19 8 33 10 23 9 28 -8 41 -10 8 -22 15 -25 15 -3 0 -29 -34 -58
-76z"/>
<path d="M2686 1735 c-3 -8 -1 -15 4 -15 6 0 10 7 10 15 0 8 -2 15 -4 15 -2 0
-6 -7 -10 -15z"/>
<path d="M962 1670 c-56 -39 -104 -75 -107 -80 -3 -5 15 -41 41 -79 41 -62 49
-69 66 -60 31 17 32 37 2 76 -26 35 -27 36 -8 50 17 12 21 11 44 -17 26 -31
26 -31 49 -13 22 18 22 19 4 50 -15 27 -16 34 -4 45 11 11 16 9 29 -11 44 -65
47 -67 76 -48 l26 17 -47 70 c-27 38 -53 69 -59 70 -5 0 -56 -32 -112 -70z"/>
<path d="M2662 1720 c0 -14 2 -19 5 -12 2 6 2 18 0 25 -3 6 -5 1 -5 -13z"/>
<path d="M4836 1715 c-12 -31 17 -61 48 -49 21 8 28 34 15 50 -15 19 -55 18
-63 -1z"/>
<path d="M2760 1709 c0 -5 5 -7 10 -4 6 3 10 8 10 11 0 2 -4 4 -10 4 -5 0 -10
-5 -10 -11z"/>
<path d="M2710 1700 c0 -5 5 -10 11 -10 5 0 7 5 4 10 -3 6 -8 10 -11 10 -2 0
-4 -4 -4 -10z"/>
<path d="M2774 1674 c-4 -10 -16 -32 -27 -47 -10 -16 -17 -30 -14 -33 3 -3 17
15 32 41 15 25 25 49 21 52 -3 3 -9 -3 -12 -13z"/>
<path d="M2635 1649 c-4 -6 -5 -12 -2 -15 2 -3 7 2 10 11 7 17 1 20 -8 4z"/>
<path d="M2586 1555 c-3 -9 -6 -22 -5 -28 0 -7 5 -1 10 12 5 13 8 26 5 28 -2
2 -6 -3 -10 -12z"/>
<path d="M2612 1545 c-17 -37 -14 -45 4 -12 9 16 14 31 11 33 -2 2 -9 -7 -15
-21z"/>
<path d="M4451 1536 l-23 -24 57 -77 c31 -42 55 -79 52 -81 -2 -2 -38 16 -79
41 -41 25 -80 45 -85 45 -17 0 -47 -40 -37 -49 14 -13 233 -131 243 -131 16 0
61 61 54 73 -15 26 -136 203 -147 215 -10 10 -17 7 -35 -12z"/>
<path d="M2682 1530 c-8 -13 -8 -20 -2 -20 6 0 13 7 17 15 9 24 -1 27 -15 5z"/>
<path d="M2625 1509 c-4 -6 -5 -12 -2 -15 2 -3 7 2 10 11 7 17 1 20 -8 4z"/>
<path d="M1175 1497 c-105 -48 -154 -148 -104 -211 43 -54 110 -57 170 -6 l34
28 -39 41 c-38 39 -41 40 -58 24 -11 -10 -17 -25 -14 -36 3 -14 0 -17 -17 -15
-30 4 -32 29 -6 61 30 39 76 62 95 46 8 -6 14 -17 14 -24 0 -11 41 -35 60 -35
6 0 10 17 10 38 0 70 -79 118 -145 89z"/>
<path d="M2646 1473 c-6 -14 -5 -15 5 -6 7 7 10 15 7 18 -3 3 -9 -2 -12 -12z"/>
<path d="M2545 1470 c-3 -5 -1 -10 4 -10 6 0 11 5 11 10 0 6 -2 10 -4 10 -3 0
-8 -4 -11 -10z"/>
<path d="M2520 1428 c-12 -22 -12 -22 6 -6 10 10 15 20 12 24 -4 3 -12 -5 -18
-18z"/>
<path d="M2600 1427 c0 -19 -35 -49 -45 -40 -4 5 -5 2 -1 -5 6 -11 12 -10 28
5 26 24 42 53 28 53 -5 0 -10 -6 -10 -13z"/>
<path d="M2501 1393 c0 -7 -11 -23 -23 -35 -20 -20 -20 -22 -3 -34 15 -11 16
-16 5 -29 -7 -8 -9 -15 -5 -15 9 0 44 43 45 55 0 6 -5 3 -10 -5 -9 -13 -11
-13 -20 0 -7 11 -5 18 6 27 9 6 14 20 11 30 -3 10 -5 12 -6 6z"/>
<path d="M2530 1349 c0 -5 5 -7 10 -4 6 3 10 8 10 11 0 2 -4 4 -10 4 -5 0 -10
-5 -10 -11z"/>
<path d="M2850 1328 c-30 -15 -53 -37 -67 -63 -87 -155 115 -306 245 -182 84
81 47 225 -67 257 -51 14 -61 13 -111 -12z m131 -67 c19 -20 29 -40 29 -60 0
-41 -13 -39 -38 4 -12 19 -32 37 -46 41 -15 3 -26 12 -26 18 0 36 43 34 81 -3z"/>
<path d="M1330 1239 c-47 -55 -86 -106 -87 -112 -1 -7 26 -35 60 -64 l61 -52
24 22 24 22 -41 35 c-37 32 -40 38 -28 54 13 18 15 18 46 -5 l31 -23 23 23 22
22 -27 20 c-16 12 -28 27 -28 34 0 28 23 26 62 -5 l40 -33 21 22 22 22 -55 50
c-86 78 -75 80 -170 -32z"/>
<path d="M4235 1305 c-16 -8 -47 -29 -68 -48 l-38 -33 91 -107 92 -107 30 21
29 21 -25 27 c-32 34 -32 38 1 73 44 46 30 124 -29 154 -33 17 -45 17 -83 -1z
m73 -81 c2 -11 -6 -28 -16 -37 -18 -16 -20 -16 -42 8 -19 21 -21 27 -10 40 19
23 64 15 68 -11z"/>
<path d="M2424 1268 c6 -19 -10 -35 -16 -16 -3 8 -7 6 -11 -5 -8 -22 4 -28 27
-12 14 11 16 17 6 32 -10 15 -11 16 -6 1z"/>
<path d="M2370 1205 c-8 -9 -8 -15 -2 -15 12 0 26 19 19 26 -2 2 -10 -2 -17
-11z"/>
<path d="M1550 1083 c-30 -47 -63 -99 -73 -114 -18 -27 -18 -27 12 -48 l29
-21 42 62 42 63 -5 -50 c-4 -27 -9 -64 -13 -82 -6 -29 -3 -34 27 -52 19 -12
36 -21 39 -21 3 1 38 53 79 117 l74 115 -24 19 c-13 10 -27 19 -31 19 -4 0
-24 -26 -44 -57 -46 -71 -43 -67 -48 -62 -2 2 2 36 10 74 7 39 13 75 14 80 0
11 -51 45 -67 45 -4 -1 -33 -40 -63 -87z"/>
<path d="M3812 1019 c-34 -17 -62 -35 -62 -40 0 -18 123 -239 133 -239 19 0
117 62 127 80 33 63 -15 187 -85 216 -45 18 -42 19 -113 -17z m103 -65 c30
-32 42 -88 25 -109 -20 -24 -27 -19 -64 47 -26 46 -32 66 -24 75 16 20 37 16
63 -13z"/>
<path d="M1810 890 c-33 -66 -60 -121 -60 -124 0 -6 60 -29 64 -25 3 2 31 58
64 124 60 119 60 120 39 132 -12 7 -28 12 -34 13 -7 0 -40 -54 -73 -120z"/>
<path d="M3590 921 c-41 -16 -75 -33 -75 -39 0 -23 91 -252 100 -252 9 0 146
50 153 56 2 1 1 16 -3 33 l-6 30 -51 -20 c-41 -16 -53 -17 -59 -7 -16 24 -9
36 25 48 33 11 34 12 24 41 -7 20 -15 28 -25 25 -41 -16 -61 -17 -66 -2 -7 18
7 30 55 45 35 12 36 13 26 42 -5 16 -13 29 -16 28 -4 0 -41 -13 -82 -28z"/>
<path d="M2040 923 c-44 -16 -96 -93 -100 -148 -4 -60 1 -77 29 -106 36 -35
92 -39 131 -9 l25 20 -25 20 c-17 14 -34 18 -53 14 -19 -4 -29 -1 -33 10 -11
28 6 87 32 113 23 23 26 24 43 9 23 -21 81 -22 81 0 0 53 -74 97 -130 77z"/>
<path d="M3385 851 c-29 -6 -31 -10 -46 -89 -15 -77 -24 -102 -32 -91 -2 2
-23 32 -45 66 -50 74 -51 75 -91 67 -24 -5 -31 -12 -31 -29 0 -21 48 -247 54
-252 2 -2 17 0 34 3 35 7 37 14 21 79 -17 69 -7 71 39 5 24 -34 49 -59 55 -57
7 2 17 34 23 70 6 37 13 70 16 73 4 3 13 -23 21 -58 14 -63 14 -63 47 -60 19
1 35 4 37 6 2 1 -8 54 -22 117 -35 160 -35 159 -43 158 -4 -1 -20 -4 -37 -8z"/>
<path d="M2427 813 c-8 -13 -40 -263 -35 -268 10 -11 120 -26 141 -19 55 16
79 72 54 123 -9 18 -11 34 -6 42 15 24 10 75 -10 93 -13 12 -100 35 -138 36
-1 0 -4 -3 -6 -7z m99 -78 c16 -13 17 -16 4 -25 -21 -14 -34 -7 -38 18 -4 26
7 28 34 7z m8 -111 c9 -23 -2 -34 -35 -34 -24 0 -29 4 -29 25 0 21 5 25 29 25
17 0 31 -6 35 -16z"/>
<path d="M2695 780 c-2 -3 -5 -66 -7 -140 l-3 -135 32 -3 31 -3 6 73 c3 40 7
103 9 140 l5 66 -35 4 c-19 2 -36 2 -38 -2z"/>
<path d="M2903 778 c-28 -13 -63 -84 -63 -124 0 -49 20 -105 47 -130 28 -26
88 -33 124 -14 65 36 69 206 5 259 -21 18 -86 23 -113 9z m77 -77 c11 -22 14
-90 4 -115 -7 -19 -35 -21 -52 -4 -16 16 -16 110 0 126 18 18 36 15 48 -7z"/>
</g>
</svg>
